<mxfile host="app.diagrams.net" modified="2023-08-07T12:47:05.993Z" agent="Mozilla/5.0 (Windows NT 10.0; Win64; x64) AppleWebKit/537.36 (KHTML, like Gecko) Chrome/106.0.0.0 Safari/537.36" etag="fwjcfEyO1pmNuPAO-tsQ" version="21.4.0" type="github">
  <diagram name="第 1 页" id="eEIU5UlcsHbvy-gOTFi1">
    <mxGraphModel dx="2526" dy="1180" grid="1" gridSize="10" guides="1" tooltips="1" connect="1" arrows="1" fold="1" page="1" pageScale="1" pageWidth="3300" pageHeight="4681" math="0" shadow="0">
      <root>
        <mxCell id="0" />
        <mxCell id="1" parent="0" />
        <mxCell id="T_C2f5gOBLzj8zOb4brC-143" style="edgeStyle=orthogonalEdgeStyle;rounded=0;orthogonalLoop=1;jettySize=auto;html=1;exitX=0.25;exitY=1;exitDx=0;exitDy=0;entryX=0.25;entryY=0;entryDx=0;entryDy=0;" edge="1" parent="1" source="T_C2f5gOBLzj8zOb4brC-131" target="T_C2f5gOBLzj8zOb4brC-132">
          <mxGeometry relative="1" as="geometry" />
        </mxCell>
        <mxCell id="T_C2f5gOBLzj8zOb4brC-131" value="" style="rounded=1;whiteSpace=wrap;html=1;fillColor=#b1ddf0;strokeColor=#10739e;opacity=50;" vertex="1" parent="1">
          <mxGeometry x="520" y="1378" width="1080" height="243" as="geometry" />
        </mxCell>
        <mxCell id="T_C2f5gOBLzj8zOb4brC-114" value="" style="rounded=1;whiteSpace=wrap;html=1;fillColor=#b0e3e6;strokeColor=#0e8088;opacity=50;" vertex="1" parent="1">
          <mxGeometry x="520" y="570" width="1080" height="770" as="geometry" />
        </mxCell>
        <mxCell id="T_C2f5gOBLzj8zOb4brC-58" value="" style="rhombus;whiteSpace=wrap;html=1;" vertex="1" parent="1">
          <mxGeometry x="1420" y="690" width="80" height="50" as="geometry" />
        </mxCell>
        <mxCell id="T_C2f5gOBLzj8zOb4brC-41" style="edgeStyle=orthogonalEdgeStyle;rounded=0;orthogonalLoop=1;jettySize=auto;html=1;exitX=1;exitY=0.5;exitDx=0;exitDy=0;entryX=0;entryY=0.5;entryDx=0;entryDy=0;" edge="1" parent="1" source="T_C2f5gOBLzj8zOb4brC-1" target="T_C2f5gOBLzj8zOb4brC-40">
          <mxGeometry relative="1" as="geometry" />
        </mxCell>
        <mxCell id="T_C2f5gOBLzj8zOb4brC-177" value="请求" style="edgeLabel;html=1;align=center;verticalAlign=middle;resizable=0;points=[];" vertex="1" connectable="0" parent="T_C2f5gOBLzj8zOb4brC-41">
          <mxGeometry x="-0.1259" relative="1" as="geometry">
            <mxPoint as="offset" />
          </mxGeometry>
        </mxCell>
        <mxCell id="T_C2f5gOBLzj8zOb4brC-130" style="edgeStyle=orthogonalEdgeStyle;rounded=0;orthogonalLoop=1;jettySize=auto;html=1;exitX=0.25;exitY=1;exitDx=0;exitDy=0;entryX=0.25;entryY=0;entryDx=0;entryDy=0;" edge="1" parent="1" source="T_C2f5gOBLzj8zOb4brC-1" target="T_C2f5gOBLzj8zOb4brC-2">
          <mxGeometry relative="1" as="geometry" />
        </mxCell>
        <mxCell id="T_C2f5gOBLzj8zOb4brC-1" value="客户端" style="rounded=1;whiteSpace=wrap;html=1;" vertex="1" parent="1">
          <mxGeometry x="560" y="590" width="120" height="60" as="geometry" />
        </mxCell>
        <mxCell id="T_C2f5gOBLzj8zOb4brC-19" style="edgeStyle=orthogonalEdgeStyle;rounded=0;orthogonalLoop=1;jettySize=auto;html=1;exitX=1;exitY=0.5;exitDx=0;exitDy=0;opacity=50;" edge="1" parent="1" source="T_C2f5gOBLzj8zOb4brC-2" target="T_C2f5gOBLzj8zOb4brC-20">
          <mxGeometry relative="1" as="geometry">
            <mxPoint x="760" y="1438" as="targetPoint" />
          </mxGeometry>
        </mxCell>
        <mxCell id="T_C2f5gOBLzj8zOb4brC-140" style="edgeStyle=orthogonalEdgeStyle;rounded=0;orthogonalLoop=1;jettySize=auto;html=1;exitX=0.5;exitY=1;exitDx=0;exitDy=0;entryX=0.062;entryY=0.007;entryDx=0;entryDy=0;entryPerimeter=0;" edge="1" parent="1" source="T_C2f5gOBLzj8zOb4brC-2" target="T_C2f5gOBLzj8zOb4brC-6">
          <mxGeometry relative="1" as="geometry" />
        </mxCell>
        <mxCell id="T_C2f5gOBLzj8zOb4brC-2" value="游戏数据" style="rounded=1;whiteSpace=wrap;html=1;opacity=50;" vertex="1" parent="1">
          <mxGeometry x="560" y="1408" width="120" height="60" as="geometry" />
        </mxCell>
        <mxCell id="T_C2f5gOBLzj8zOb4brC-26" style="edgeStyle=orthogonalEdgeStyle;rounded=0;orthogonalLoop=1;jettySize=auto;html=1;exitX=1;exitY=0.5;exitDx=0;exitDy=0;entryX=0;entryY=0.5;entryDx=0;entryDy=0;opacity=50;" edge="1" parent="1" source="T_C2f5gOBLzj8zOb4brC-20" target="T_C2f5gOBLzj8zOb4brC-24">
          <mxGeometry relative="1" as="geometry" />
        </mxCell>
        <mxCell id="T_C2f5gOBLzj8zOb4brC-20" value="kafka" style="rounded=1;whiteSpace=wrap;html=1;opacity=50;" vertex="1" parent="1">
          <mxGeometry x="770" y="1408" width="100" height="60" as="geometry" />
        </mxCell>
        <mxCell id="T_C2f5gOBLzj8zOb4brC-172" style="edgeStyle=orthogonalEdgeStyle;rounded=0;orthogonalLoop=1;jettySize=auto;html=1;exitX=0.5;exitY=1;exitDx=0;exitDy=0;entryX=0.514;entryY=0.011;entryDx=0;entryDy=0;entryPerimeter=0;" edge="1" parent="1" source="T_C2f5gOBLzj8zOb4brC-24" target="T_C2f5gOBLzj8zOb4brC-6">
          <mxGeometry relative="1" as="geometry" />
        </mxCell>
        <mxCell id="T_C2f5gOBLzj8zOb4brC-24" value="Consumer" style="rounded=1;whiteSpace=wrap;html=1;opacity=50;" vertex="1" parent="1">
          <mxGeometry x="1000" y="1408" width="120" height="60" as="geometry" />
        </mxCell>
        <mxCell id="T_C2f5gOBLzj8zOb4brC-53" style="edgeStyle=orthogonalEdgeStyle;rounded=0;orthogonalLoop=1;jettySize=auto;html=1;exitX=1;exitY=0.5;exitDx=0;exitDy=0;entryX=0.5;entryY=1;entryDx=0;entryDy=0;" edge="1" parent="1" source="T_C2f5gOBLzj8zOb4brC-32" target="T_C2f5gOBLzj8zOb4brC-48">
          <mxGeometry relative="1" as="geometry">
            <mxPoint x="1600" y="890" as="targetPoint" />
          </mxGeometry>
        </mxCell>
        <mxCell id="T_C2f5gOBLzj8zOb4brC-174" value="onelight部署" style="edgeLabel;html=1;align=center;verticalAlign=middle;resizable=0;points=[];" vertex="1" connectable="0" parent="T_C2f5gOBLzj8zOb4brC-53">
          <mxGeometry x="-0.5229" y="-1" relative="1" as="geometry">
            <mxPoint as="offset" />
          </mxGeometry>
        </mxCell>
        <mxCell id="T_C2f5gOBLzj8zOb4brC-38" value="" style="group" vertex="1" connectable="0" parent="1">
          <mxGeometry x="640" y="240" width="1000" height="90" as="geometry" />
        </mxCell>
        <mxCell id="T_C2f5gOBLzj8zOb4brC-27" value="" style="rounded=1;whiteSpace=wrap;html=1;" vertex="1" parent="T_C2f5gOBLzj8zOb4brC-38">
          <mxGeometry width="1000" height="90" as="geometry" />
        </mxCell>
        <mxCell id="T_C2f5gOBLzj8zOb4brC-35" value="所有玩法列表缓存" style="rounded=1;whiteSpace=wrap;html=1;" vertex="1" parent="T_C2f5gOBLzj8zOb4brC-38">
          <mxGeometry x="60" y="15" width="120" height="60" as="geometry" />
        </mxCell>
        <mxCell id="T_C2f5gOBLzj8zOb4brC-36" value="冷起玩法列表缓存" style="rounded=1;whiteSpace=wrap;html=1;" vertex="1" parent="T_C2f5gOBLzj8zOb4brC-38">
          <mxGeometry x="220" y="15" width="120" height="60" as="geometry" />
        </mxCell>
        <mxCell id="T_C2f5gOBLzj8zOb4brC-37" value="规则召回玩法列表" style="rounded=1;whiteSpace=wrap;html=1;" vertex="1" parent="T_C2f5gOBLzj8zOb4brC-38">
          <mxGeometry x="380" y="15" width="120" height="60" as="geometry" />
        </mxCell>
        <mxCell id="T_C2f5gOBLzj8zOb4brC-42" value="保底策略玩法列表" style="rounded=1;whiteSpace=wrap;html=1;" vertex="1" parent="T_C2f5gOBLzj8zOb4brC-38">
          <mxGeometry x="540" y="15" width="120" height="60" as="geometry" />
        </mxCell>
        <mxCell id="T_C2f5gOBLzj8zOb4brC-44" style="edgeStyle=orthogonalEdgeStyle;rounded=0;orthogonalLoop=1;jettySize=auto;html=1;entryX=0.5;entryY=0;entryDx=0;entryDy=0;" edge="1" parent="1" source="T_C2f5gOBLzj8zOb4brC-58" target="T_C2f5gOBLzj8zOb4brC-43">
          <mxGeometry relative="1" as="geometry" />
        </mxCell>
        <mxCell id="T_C2f5gOBLzj8zOb4brC-40" value="推荐后台" style="rounded=1;whiteSpace=wrap;html=1;" vertex="1" parent="1">
          <mxGeometry x="1400" y="590" width="120" height="60" as="geometry" />
        </mxCell>
        <mxCell id="T_C2f5gOBLzj8zOb4brC-83" style="edgeStyle=orthogonalEdgeStyle;rounded=0;orthogonalLoop=1;jettySize=auto;html=1;exitX=0.5;exitY=1;exitDx=0;exitDy=0;entryX=0.5;entryY=0;entryDx=0;entryDy=0;" edge="1" parent="1" source="T_C2f5gOBLzj8zOb4brC-90" target="T_C2f5gOBLzj8zOb4brC-47">
          <mxGeometry relative="1" as="geometry" />
        </mxCell>
        <mxCell id="T_C2f5gOBLzj8zOb4brC-43" value="召回" style="rounded=1;whiteSpace=wrap;html=1;" vertex="1" parent="1">
          <mxGeometry x="1400" y="770" width="120" height="60" as="geometry" />
        </mxCell>
        <mxCell id="T_C2f5gOBLzj8zOb4brC-49" style="edgeStyle=orthogonalEdgeStyle;rounded=0;orthogonalLoop=1;jettySize=auto;html=1;exitX=1;exitY=0.25;exitDx=0;exitDy=0;entryX=0;entryY=0.25;entryDx=0;entryDy=0;" edge="1" parent="1" source="T_C2f5gOBLzj8zOb4brC-47" target="T_C2f5gOBLzj8zOb4brC-48">
          <mxGeometry relative="1" as="geometry" />
        </mxCell>
        <mxCell id="T_C2f5gOBLzj8zOb4brC-84" style="edgeStyle=orthogonalEdgeStyle;rounded=0;orthogonalLoop=1;jettySize=auto;html=1;exitX=0.5;exitY=1;exitDx=0;exitDy=0;entryX=0.5;entryY=0;entryDx=0;entryDy=0;" edge="1" parent="1" source="T_C2f5gOBLzj8zOb4brC-47" target="T_C2f5gOBLzj8zOb4brC-51">
          <mxGeometry relative="1" as="geometry" />
        </mxCell>
        <mxCell id="T_C2f5gOBLzj8zOb4brC-104" value="" style="edgeStyle=orthogonalEdgeStyle;rounded=0;orthogonalLoop=1;jettySize=auto;html=1;" edge="1" parent="1" source="T_C2f5gOBLzj8zOb4brC-47" target="T_C2f5gOBLzj8zOb4brC-92">
          <mxGeometry relative="1" as="geometry" />
        </mxCell>
        <mxCell id="T_C2f5gOBLzj8zOb4brC-47" value="排序" style="rounded=1;whiteSpace=wrap;html=1;" vertex="1" parent="1">
          <mxGeometry x="1400" y="940" width="120" height="60" as="geometry" />
        </mxCell>
        <mxCell id="T_C2f5gOBLzj8zOb4brC-50" style="edgeStyle=orthogonalEdgeStyle;rounded=0;orthogonalLoop=1;jettySize=auto;html=1;exitX=0;exitY=0.75;exitDx=0;exitDy=0;entryX=1;entryY=0.75;entryDx=0;entryDy=0;" edge="1" parent="1" source="T_C2f5gOBLzj8zOb4brC-48" target="T_C2f5gOBLzj8zOb4brC-47">
          <mxGeometry relative="1" as="geometry" />
        </mxCell>
        <mxCell id="T_C2f5gOBLzj8zOb4brC-48" value="tfsever" style="rounded=1;whiteSpace=wrap;html=1;fillColor=#f8cecc;strokeColor=#b85450;opacity=50;" vertex="1" parent="1">
          <mxGeometry x="1670" y="940" width="120" height="60" as="geometry" />
        </mxCell>
        <mxCell id="T_C2f5gOBLzj8zOb4brC-105" value="" style="edgeStyle=orthogonalEdgeStyle;rounded=0;orthogonalLoop=1;jettySize=auto;html=1;" edge="1" parent="1" source="T_C2f5gOBLzj8zOb4brC-51" target="T_C2f5gOBLzj8zOb4brC-95">
          <mxGeometry relative="1" as="geometry" />
        </mxCell>
        <mxCell id="T_C2f5gOBLzj8zOb4brC-51" value="重排" style="rounded=1;whiteSpace=wrap;html=1;" vertex="1" parent="1">
          <mxGeometry x="1400" y="1130" width="120" height="60" as="geometry" />
        </mxCell>
        <mxCell id="T_C2f5gOBLzj8zOb4brC-115" style="edgeStyle=orthogonalEdgeStyle;rounded=0;orthogonalLoop=1;jettySize=auto;html=1;exitX=0;exitY=0.5;exitDx=0;exitDy=0;entryX=0.5;entryY=1;entryDx=0;entryDy=0;dashed=1;dashPattern=8 8;" edge="1" parent="1" source="T_C2f5gOBLzj8zOb4brC-54" target="T_C2f5gOBLzj8zOb4brC-1">
          <mxGeometry relative="1" as="geometry" />
        </mxCell>
        <mxCell id="T_C2f5gOBLzj8zOb4brC-54" value="保底策略" style="rounded=1;whiteSpace=wrap;html=1;" vertex="1" parent="1">
          <mxGeometry x="960" y="1035" width="120" height="60" as="geometry" />
        </mxCell>
        <mxCell id="T_C2f5gOBLzj8zOb4brC-56" value="是否推荐" style="text;html=1;align=center;verticalAlign=middle;resizable=0;points=[];autosize=1;strokeColor=none;fillColor=none;" vertex="1" parent="1">
          <mxGeometry x="1420" y="700" width="80" height="30" as="geometry" />
        </mxCell>
        <mxCell id="T_C2f5gOBLzj8zOb4brC-59" value="" style="edgeStyle=orthogonalEdgeStyle;rounded=0;orthogonalLoop=1;jettySize=auto;html=1;entryX=0.5;entryY=0;entryDx=0;entryDy=0;" edge="1" parent="1" source="T_C2f5gOBLzj8zOb4brC-40" target="T_C2f5gOBLzj8zOb4brC-58">
          <mxGeometry relative="1" as="geometry">
            <mxPoint x="1460" y="660" as="sourcePoint" />
            <mxPoint x="1460" y="750" as="targetPoint" />
          </mxGeometry>
        </mxCell>
        <mxCell id="T_C2f5gOBLzj8zOb4brC-60" style="edgeStyle=orthogonalEdgeStyle;rounded=0;orthogonalLoop=1;jettySize=auto;html=1;exitX=0;exitY=0.5;exitDx=0;exitDy=0;entryX=0.5;entryY=0;entryDx=0;entryDy=0;dashed=1;dashPattern=8 8;" edge="1" parent="1" source="T_C2f5gOBLzj8zOb4brC-58" target="T_C2f5gOBLzj8zOb4brC-54">
          <mxGeometry relative="1" as="geometry" />
        </mxCell>
        <mxCell id="T_C2f5gOBLzj8zOb4brC-133" value="否" style="edgeLabel;html=1;align=center;verticalAlign=middle;resizable=0;points=[];" vertex="1" connectable="0" parent="T_C2f5gOBLzj8zOb4brC-60">
          <mxGeometry x="-0.9296" relative="1" as="geometry">
            <mxPoint as="offset" />
          </mxGeometry>
        </mxCell>
        <mxCell id="T_C2f5gOBLzj8zOb4brC-67" value="" style="rounded=1;whiteSpace=wrap;html=1;" vertex="1" parent="1">
          <mxGeometry x="90" y="1140" width="370" height="220" as="geometry" />
        </mxCell>
        <mxCell id="T_C2f5gOBLzj8zOb4brC-68" value="热&lt;br&gt;度&lt;br&gt;召&lt;br&gt;回" style="rounded=1;whiteSpace=wrap;html=1;fillColor=#d5e8d4;strokeColor=#82b366;" vertex="1" parent="1">
          <mxGeometry x="120" y="1160" width="60" height="180" as="geometry" />
        </mxCell>
        <mxCell id="T_C2f5gOBLzj8zOb4brC-69" value="好&lt;br&gt;友&lt;br&gt;召&lt;br&gt;回" style="rounded=1;whiteSpace=wrap;html=1;fillColor=#d5e8d4;strokeColor=#82b366;" vertex="1" parent="1">
          <mxGeometry x="210" y="1160" width="60" height="180" as="geometry" />
        </mxCell>
        <mxCell id="T_C2f5gOBLzj8zOb4brC-70" value="标&lt;br&gt;签&lt;br&gt;召&lt;br&gt;回" style="rounded=1;whiteSpace=wrap;html=1;fillColor=#d5e8d4;strokeColor=#82b366;" vertex="1" parent="1">
          <mxGeometry x="300" y="1160" width="60" height="180" as="geometry" />
        </mxCell>
        <mxCell id="T_C2f5gOBLzj8zOb4brC-71" value="冷&lt;br&gt;启&lt;br&gt;召&lt;br&gt;回" style="rounded=1;whiteSpace=wrap;html=1;fillColor=#647687;fontColor=#ffffff;strokeColor=#314354;" vertex="1" parent="1">
          <mxGeometry x="380" y="1160" width="60" height="180" as="geometry" />
        </mxCell>
        <mxCell id="T_C2f5gOBLzj8zOb4brC-91" value="" style="edgeStyle=orthogonalEdgeStyle;rounded=0;orthogonalLoop=1;jettySize=auto;html=1;exitX=0.5;exitY=1;exitDx=0;exitDy=0;entryX=0.5;entryY=0;entryDx=0;entryDy=0;" edge="1" parent="1" source="T_C2f5gOBLzj8zOb4brC-43" target="T_C2f5gOBLzj8zOb4brC-90">
          <mxGeometry relative="1" as="geometry">
            <mxPoint x="1460" y="830" as="sourcePoint" />
            <mxPoint x="1460" y="940" as="targetPoint" />
          </mxGeometry>
        </mxCell>
        <mxCell id="T_C2f5gOBLzj8zOb4brC-108" style="edgeStyle=orthogonalEdgeStyle;rounded=0;orthogonalLoop=1;jettySize=auto;html=1;entryX=1;entryY=0.5;entryDx=0;entryDy=0;dashed=1;dashPattern=8 8;" edge="1" parent="1" target="T_C2f5gOBLzj8zOb4brC-54">
          <mxGeometry relative="1" as="geometry">
            <mxPoint x="1420" y="885" as="sourcePoint" />
          </mxGeometry>
        </mxCell>
        <mxCell id="T_C2f5gOBLzj8zOb4brC-163" value="fail" style="edgeLabel;html=1;align=center;verticalAlign=middle;resizable=0;points=[];" vertex="1" connectable="0" parent="T_C2f5gOBLzj8zOb4brC-108">
          <mxGeometry x="-0.9564" y="-1" relative="1" as="geometry">
            <mxPoint as="offset" />
          </mxGeometry>
        </mxCell>
        <mxCell id="T_C2f5gOBLzj8zOb4brC-90" value="if ok" style="rhombus;whiteSpace=wrap;html=1;" vertex="1" parent="1">
          <mxGeometry x="1420" y="860" width="80" height="50" as="geometry" />
        </mxCell>
        <mxCell id="T_C2f5gOBLzj8zOb4brC-109" style="edgeStyle=orthogonalEdgeStyle;rounded=0;orthogonalLoop=1;jettySize=auto;html=1;exitX=0;exitY=0.5;exitDx=0;exitDy=0;dashed=1;dashPattern=8 8;endArrow=none;endFill=0;" edge="1" parent="1" source="T_C2f5gOBLzj8zOb4brC-92">
          <mxGeometry relative="1" as="geometry">
            <mxPoint x="1250" y="1065" as="targetPoint" />
          </mxGeometry>
        </mxCell>
        <mxCell id="T_C2f5gOBLzj8zOb4brC-164" value="fail" style="edgeLabel;html=1;align=center;verticalAlign=middle;resizable=0;points=[];" vertex="1" connectable="0" parent="T_C2f5gOBLzj8zOb4brC-109">
          <mxGeometry x="-0.8084" relative="1" as="geometry">
            <mxPoint as="offset" />
          </mxGeometry>
        </mxCell>
        <mxCell id="T_C2f5gOBLzj8zOb4brC-92" value="if ok" style="rhombus;whiteSpace=wrap;html=1;" vertex="1" parent="1">
          <mxGeometry x="1420" y="1040" width="80" height="50" as="geometry" />
        </mxCell>
        <mxCell id="T_C2f5gOBLzj8zOb4brC-110" style="edgeStyle=orthogonalEdgeStyle;rounded=0;orthogonalLoop=1;jettySize=auto;html=1;exitX=0;exitY=0.5;exitDx=0;exitDy=0;entryX=1;entryY=0.5;entryDx=0;entryDy=0;dashed=1;dashPattern=8 8;" edge="1" parent="1" source="T_C2f5gOBLzj8zOb4brC-95" target="T_C2f5gOBLzj8zOb4brC-54">
          <mxGeometry relative="1" as="geometry" />
        </mxCell>
        <mxCell id="T_C2f5gOBLzj8zOb4brC-165" value="fail" style="edgeLabel;html=1;align=center;verticalAlign=middle;resizable=0;points=[];" vertex="1" connectable="0" parent="T_C2f5gOBLzj8zOb4brC-110">
          <mxGeometry x="-0.9302" y="1" relative="1" as="geometry">
            <mxPoint as="offset" />
          </mxGeometry>
        </mxCell>
        <mxCell id="T_C2f5gOBLzj8zOb4brC-116" style="edgeStyle=orthogonalEdgeStyle;rounded=0;orthogonalLoop=1;jettySize=auto;html=1;entryX=0.5;entryY=1;entryDx=0;entryDy=0;" edge="1" parent="1" source="T_C2f5gOBLzj8zOb4brC-95" target="T_C2f5gOBLzj8zOb4brC-1">
          <mxGeometry relative="1" as="geometry">
            <Array as="points">
              <mxPoint x="1460" y="1320" />
              <mxPoint x="620" y="1320" />
            </Array>
          </mxGeometry>
        </mxCell>
        <mxCell id="T_C2f5gOBLzj8zOb4brC-178" value="推荐结果" style="edgeLabel;html=1;align=center;verticalAlign=middle;resizable=0;points=[];" vertex="1" connectable="0" parent="T_C2f5gOBLzj8zOb4brC-116">
          <mxGeometry x="0.8379" relative="1" as="geometry">
            <mxPoint as="offset" />
          </mxGeometry>
        </mxCell>
        <mxCell id="T_C2f5gOBLzj8zOb4brC-95" value="if ok" style="rhombus;whiteSpace=wrap;html=1;" vertex="1" parent="1">
          <mxGeometry x="1420" y="1225" width="80" height="50" as="geometry" />
        </mxCell>
        <mxCell id="T_C2f5gOBLzj8zOb4brC-118" value="" style="endArrow=none;dashed=1;html=1;rounded=0;dashPattern=8 8;" edge="1" parent="1">
          <mxGeometry width="50" height="50" relative="1" as="geometry">
            <mxPoint x="460" y="1648" as="sourcePoint" />
            <mxPoint x="1950" y="1648" as="targetPoint" />
          </mxGeometry>
        </mxCell>
        <mxCell id="T_C2f5gOBLzj8zOb4brC-119" value="离线" style="rounded=1;whiteSpace=wrap;html=1;fillColor=#cdeb8b;strokeColor=#36393d;fontSize=20;" vertex="1" parent="1">
          <mxGeometry x="1820" y="1661" width="120" height="60" as="geometry" />
        </mxCell>
        <mxCell id="T_C2f5gOBLzj8zOb4brC-120" value="在线" style="rounded=1;whiteSpace=wrap;html=1;fillColor=#cdeb8b;strokeColor=#36393d;fontSize=20;" vertex="1" parent="1">
          <mxGeometry x="1820" y="590" width="120" height="60" as="geometry" />
        </mxCell>
        <mxCell id="T_C2f5gOBLzj8zOb4brC-136" value="" style="group" vertex="1" connectable="0" parent="1">
          <mxGeometry x="560" y="1501" width="970" height="90" as="geometry" />
        </mxCell>
        <mxCell id="T_C2f5gOBLzj8zOb4brC-6" value="" style="rounded=1;whiteSpace=wrap;html=1;opacity=50;" vertex="1" parent="T_C2f5gOBLzj8zOb4brC-136">
          <mxGeometry width="969.9999999999999" height="90" as="geometry" />
        </mxCell>
        <mxCell id="T_C2f5gOBLzj8zOb4brC-126" value="TLog" style="rounded=1;whiteSpace=wrap;html=1;opacity=50;" vertex="1" parent="T_C2f5gOBLzj8zOb4brC-136">
          <mxGeometry x="34.64285714285714" y="20" width="277.1428571428571" height="50" as="geometry" />
        </mxCell>
        <mxCell id="T_C2f5gOBLzj8zOb4brC-134" value="Redis" style="rounded=1;whiteSpace=wrap;html=1;opacity=50;" vertex="1" parent="T_C2f5gOBLzj8zOb4brC-136">
          <mxGeometry x="346.4285714285714" y="20" width="277.1428571428571" height="50" as="geometry" />
        </mxCell>
        <mxCell id="T_C2f5gOBLzj8zOb4brC-135" value="MySQL" style="rounded=1;whiteSpace=wrap;html=1;opacity=50;" vertex="1" parent="T_C2f5gOBLzj8zOb4brC-136">
          <mxGeometry x="658.2142857142857" y="25" width="277.1428571428571" height="50" as="geometry" />
        </mxCell>
        <mxCell id="T_C2f5gOBLzj8zOb4brC-142" value="" style="group" vertex="1" connectable="0" parent="1">
          <mxGeometry x="520" y="1679" width="1080" height="250" as="geometry" />
        </mxCell>
        <mxCell id="T_C2f5gOBLzj8zOb4brC-132" value="" style="rounded=1;whiteSpace=wrap;html=1;fillColor=#647687;strokeColor=#314354;opacity=50;fontColor=#ffffff;" vertex="1" parent="T_C2f5gOBLzj8zOb4brC-142">
          <mxGeometry width="1080" height="250" as="geometry" />
        </mxCell>
        <mxCell id="T_C2f5gOBLzj8zOb4brC-30" value="特征工程" style="rounded=1;whiteSpace=wrap;html=1;" vertex="1" parent="T_C2f5gOBLzj8zOb4brC-142">
          <mxGeometry x="30" y="30" width="980" height="60" as="geometry" />
        </mxCell>
        <mxCell id="T_C2f5gOBLzj8zOb4brC-32" value="模型训练" style="rounded=1;whiteSpace=wrap;html=1;" vertex="1" parent="T_C2f5gOBLzj8zOb4brC-142">
          <mxGeometry x="30" y="160" width="980" height="60" as="geometry" />
        </mxCell>
        <mxCell id="T_C2f5gOBLzj8zOb4brC-33" style="edgeStyle=orthogonalEdgeStyle;rounded=0;orthogonalLoop=1;jettySize=auto;html=1;exitX=0.5;exitY=1;exitDx=0;exitDy=0;entryX=0.5;entryY=0;entryDx=0;entryDy=0;" edge="1" parent="T_C2f5gOBLzj8zOb4brC-142" source="T_C2f5gOBLzj8zOb4brC-30" target="T_C2f5gOBLzj8zOb4brC-32">
          <mxGeometry relative="1" as="geometry" />
        </mxCell>
        <mxCell id="T_C2f5gOBLzj8zOb4brC-144" style="edgeStyle=orthogonalEdgeStyle;rounded=0;orthogonalLoop=1;jettySize=auto;html=1;exitX=0.75;exitY=0;exitDx=0;exitDy=0;entryX=0.75;entryY=1;entryDx=0;entryDy=0;" edge="1" parent="1" source="T_C2f5gOBLzj8zOb4brC-132" target="T_C2f5gOBLzj8zOb4brC-131">
          <mxGeometry relative="1" as="geometry" />
        </mxCell>
        <mxCell id="T_C2f5gOBLzj8zOb4brC-169" value="特征回写" style="text;html=1;align=center;verticalAlign=middle;resizable=0;points=[];autosize=1;strokeColor=none;fillColor=none;" vertex="1" parent="1">
          <mxGeometry x="1330" y="1649" width="80" height="30" as="geometry" />
        </mxCell>
        <mxCell id="T_C2f5gOBLzj8zOb4brC-170" value="" style="group" vertex="1" connectable="0" parent="1">
          <mxGeometry x="550" y="2130" width="970" height="90" as="geometry" />
        </mxCell>
        <mxCell id="T_C2f5gOBLzj8zOb4brC-146" value="" style="rounded=1;whiteSpace=wrap;html=1;opacity=50;container=0;" vertex="1" parent="T_C2f5gOBLzj8zOb4brC-170">
          <mxGeometry width="969.9999999999999" height="90" as="geometry" />
        </mxCell>
        <mxCell id="T_C2f5gOBLzj8zOb4brC-147" value="有效玩法列表缓存" style="rounded=1;whiteSpace=wrap;html=1;opacity=50;container=0;" vertex="1" parent="T_C2f5gOBLzj8zOb4brC-170">
          <mxGeometry x="40" y="20" width="145.36" height="50" as="geometry" />
        </mxCell>
        <mxCell id="T_C2f5gOBLzj8zOb4brC-157" value="冷启玩法列表缓存" style="rounded=1;whiteSpace=wrap;html=1;opacity=50;container=0;" vertex="1" parent="T_C2f5gOBLzj8zOb4brC-170">
          <mxGeometry x="230" y="20" width="145.36" height="50" as="geometry" />
        </mxCell>
        <mxCell id="T_C2f5gOBLzj8zOb4brC-158" value="热门玩法列表缓存" style="rounded=1;whiteSpace=wrap;html=1;opacity=50;container=0;" vertex="1" parent="T_C2f5gOBLzj8zOb4brC-170">
          <mxGeometry x="424.6400000000001" y="20" width="145.36" height="50" as="geometry" />
        </mxCell>
        <mxCell id="T_C2f5gOBLzj8zOb4brC-159" value="保底玩法列表缓存" style="rounded=1;whiteSpace=wrap;html=1;opacity=50;container=0;" vertex="1" parent="T_C2f5gOBLzj8zOb4brC-170">
          <mxGeometry x="610" y="20" width="145.36" height="50" as="geometry" />
        </mxCell>
        <mxCell id="T_C2f5gOBLzj8zOb4brC-160" value="有效玩法列表缓存" style="rounded=1;whiteSpace=wrap;html=1;opacity=50;container=0;" vertex="1" parent="T_C2f5gOBLzj8zOb4brC-170">
          <mxGeometry x="800" y="20" width="145.36" height="50" as="geometry" />
        </mxCell>
        <mxCell id="T_C2f5gOBLzj8zOb4brC-176" value="" style="endArrow=classic;html=1;rounded=0;entryX=0.75;entryY=1;entryDx=0;entryDy=0;" edge="1" parent="1" target="T_C2f5gOBLzj8zOb4brC-114">
          <mxGeometry width="50" height="50" relative="1" as="geometry">
            <mxPoint x="1330" y="1380" as="sourcePoint" />
            <mxPoint x="1330" y="1350" as="targetPoint" />
            <Array as="points" />
          </mxGeometry>
        </mxCell>
      </root>
    </mxGraphModel>
  </diagram>
</mxfile>
